<?xml version="1.0" standalone="no"?>
<!DOCTYPE svg PUBLIC "-//W3C//DTD SVG 20010904//EN"
 "http://www.w3.org/TR/2001/REC-SVG-20010904/DTD/svg10.dtd">
<svg version="1.0" xmlns="http://www.w3.org/2000/svg"
 width="747.000000pt" height="411.000000pt" viewBox="0 0 747.000000 411.000000"
 preserveAspectRatio="xMidYMid meet">

<g transform="translate(0.000000,411.000000) scale(0.100000,-0.100000)"
fill="#000000" stroke="none">
<path d="M3549 2135 l-707 -1835 171 2 171 3 698 1805 c384 993 702 1817 707
1833 l10 27 -172 0 -172 0 -706 -1835z"/>
<path d="M1338 2597 l-1168 -602 3 -139 2 -139 910 -469 c501 -258 1028 -529
1173 -604 l262 -135 0 176 0 175 -990 495 c-545 272 -990 497 -990 499 0 2
445 229 990 503 l990 498 0 173 c0 94 -3 172 -7 171 -5 0 -533 -271 -1175
-602z"/>
<path d="M4930 3025 l0 -175 997 -495 c548 -272 994 -497 991 -500 -3 -3 -451
-228 -997 -500 l-991 -494 0 -175 0 -175 73 38 c39 21 558 287 1152 591 594
304 1090 559 1103 567 21 13 22 19 22 147 0 100 -3 136 -14 145 -10 8 -1921
992 -2268 1167 l-68 34 0 -175z"/>
</g>
</svg>
